<svg width="21" height="22" viewBox="0 0 21 22" fill="none" xmlns="http://www.w3.org/2000/svg">
<path d="M7.69775 2.84375L8.2915 2.375V2.375C9.68401 1.27565 11.649 1.27565 13.0415 2.375L18.6451 6.79888C19.6059 7.55744 20.1665 8.71422 20.1665 9.93841V16.5C20.1665 18.7091 18.3756 20.5 16.1665 20.5H14.6665C14.1142 20.5 13.6665 20.0523 13.6665 19.5V17.5M4.13525 5.65625L3.5415 6.125L2.68793 6.79888C1.72708 7.55744 1.1665 8.71422 1.1665 9.93841L1.1665 16.5C1.1665 18.7091 2.95736 20.5 5.1665 20.5H6.6665C7.21879 20.5 7.6665 20.0523 7.6665 19.5V16.5C7.6665 15.3954 8.56193 14.5 9.6665 14.5H10.6665" stroke="#9DA9BB" stroke-width="1.5" stroke-linecap="round"/>
</svg>
