<svg width="192" height="142" viewBox="0 0 192 142" fill="none" xmlns="http://www.w3.org/2000/svg">
<path d="M172.663 131.114H159.951V131.21H172.663V131.114Z" fill="#F9FAFD"/>
<path d="M127.118 132.149H123.782V132.245H127.118V132.149Z" fill="#F9FAFD"/>
<path d="M159.566 127.569H152.2V127.665H159.566V127.569Z" fill="#F9FAFD"/>
<path d="M36.7081 128.211H20.1313V128.307H36.7081V128.211Z" fill="#F9FAFD"/>
<path d="M42.555 128.211H40.1245V128.307H42.555V128.211Z" fill="#F9FAFD"/>
<path d="M86.4069 129.822H50.4556V129.918H86.4069V129.822Z" fill="#F9FAFD"/>
<path d="M91.4932 107.95H17.385C16.1772 107.95 15.1943 106.973 15.1943 105.771V2.17848C15.1943 0.977415 16.1772 0 17.385 0H91.4932C92.7006 0 93.6835 0.977415 93.6835 2.17848V105.771C93.6835 106.973 92.7006 107.95 91.4932 107.95ZM17.385 0.0957948C16.2298 0.0957948 15.2903 1.03008 15.2903 2.17886V105.772C15.2903 106.921 16.2298 107.855 17.385 107.855H91.4932C92.648 107.855 93.5875 106.921 93.5875 105.772V2.17848C93.5875 1.03008 92.648 0.0954134 91.4932 0.0954134L17.385 0.0957948Z" fill="#F9FAFD"/>
<path d="M174.506 107.95H100.398C99.1904 107.95 98.2075 106.973 98.2075 105.771V2.17848C98.2075 0.977415 99.1904 0 100.398 0H174.506C175.714 0 176.697 0.977415 176.697 2.17848V105.771C176.697 106.973 175.714 107.95 174.506 107.95ZM100.398 0.0957948C99.243 0.0957948 98.3035 1.03008 98.3035 2.17886V105.772C98.3035 106.921 99.243 107.855 100.398 107.855H174.506C175.661 107.855 176.601 106.921 176.601 105.772V2.17848C176.601 1.03008 175.661 0.0954134 174.506 0.0954134L100.398 0.0957948Z" fill="#F9FAFD"/>
<path d="M191.892 124.971H0V125.066H191.892V124.971Z" fill="#F9FAFD"/>
<path d="M69.3341 29.3203L53.2847 31.2442V23.4131L69.3341 25.337V29.3203Z" fill="#EDF2F9"/>
<path d="M68.8291 21.6016L74.5882 27.3287L68.8291 33.0554V21.6016Z" fill="#EDF2F9"/>
<path d="M31.3293 46.4627L22.7456 47.4916V43.3037L31.3293 44.3323V46.4627Z" fill="#EDF2F9"/>
<path d="M31.0586 42.333L34.1385 45.3958L31.0586 48.4589V42.333Z" fill="#EDF2F9"/>
<path d="M44.0837 99.1381L27.9897 101.067V93.2148L44.0837 95.1437V99.1381Z" fill="#EDF2F9"/>
<path d="M43.5771 91.3984L49.3519 97.1412L43.5771 102.884V91.3984Z" fill="#EDF2F9"/>
<path d="M41.1055 20.3221L33.4106 21.2446V17.4902L41.1055 18.4123V20.3221Z" fill="#EDF2F9"/>
<path d="M40.8613 16.623L43.6223 19.3687L40.8613 22.1147V16.623Z" fill="#EDF2F9"/>
<path d="M95.9456 142C137.042 142 170.357 140.066 170.357 137.679C170.357 135.292 137.042 133.357 95.9456 133.357C54.8493 133.357 21.5342 135.292 21.5342 137.679C21.5342 140.066 54.8493 142 95.9456 142Z" fill="#D8E2EF"/>
<path d="M161.917 19.1055H106.118V137.72H161.917V19.1055Z" fill="#232E3C"/>
<path opacity="0.4" d="M106.191 19.7254L106.049 137.435L107.904 137.437L108.046 19.7276L106.191 19.7254Z" fill="#0B1727"/>
<path d="M163.7 17.1126L163.555 137.435L165.41 137.437L165.555 17.1148L163.7 17.1126Z" fill="#FBB03B"/>
<g opacity="0.4">
<path d="M163.7 17.1126L163.555 137.435L165.41 137.437L165.555 17.1148L163.7 17.1126Z" fill="#0B1727"/>
</g>
<path d="M104.183 17.1084V137.718H106.117V19.1044H161.685V137.718H163.615V17.1084H104.183Z" fill="#FBB03B"/>
<path d="M147.845 9.25H119.958V19.1795H147.845V9.25Z" fill="#FBB03B"/>
<path opacity="0.8" d="M147.845 9.25H119.958V19.1795H147.845V9.25Z" fill="white"/>
<path d="M130.399 16.1781V17.1086H126.498V12.0986H130.305V13.0291H127.657V14.1172H129.996V15.019H127.657V16.1785L130.399 16.1781Z" fill="#232E3C"/>
<path d="M134.454 17.1086L133.237 15.3694L132.043 17.1086H130.704L132.568 14.5607L130.798 12.0986H132.122L133.281 13.7233L134.418 12.0986H135.678L133.922 14.5176L135.8 17.1086H134.454Z" fill="#232E3C"/>
<path d="M136.262 12.0986H137.428V17.1086H136.262V12.0986Z" fill="#232E3C"/>
<path d="M139.667 13.0432H138.055V12.0986H142.445V13.0432H140.833V17.1086H139.667V13.0432H139.667Z" fill="#232E3C"/>
<g opacity="0.4">
<path d="M161.432 122.644V134.208L161.206 133.822L158.227 128.697L152.713 119.209L141.564 100.027H115.393C113.785 100.027 112.48 98.7371 112.48 97.1341C112.48 95.535 113.785 94.2412 115.393 94.2412H144.918L157.963 116.671L158.227 117.129L161.206 122.251L161.432 122.644Z" fill="white"/>
</g>
<path opacity="0.2" d="M121.976 100.028H116.46V137.642H121.976V100.028Z" fill="white"/>
<path opacity="0.2" d="M141.49 100.028H135.975V137.642H141.49V100.028Z" fill="white"/>
<path opacity="0.2" d="M158.227 128.697V137.719H152.712V119.209L158.227 128.697Z" fill="white"/>
<path d="M139.776 53.6302L134.016 59.3592L128.259 53.6302H130.094L130.082 45.9102H137.953L138.006 53.6302H139.776Z" fill="white"/>
<path d="M42.6876 74.4101L41.8947 73.9292L48.1178 63.2838C49.1072 61.5915 49.235 59.8115 47.1349 58.5497C45.1707 57.3697 43.2821 58.0887 42.2877 59.7741L36.034 70.3764L35.2441 69.8974L41.5021 59.3008C42.6588 57.3418 44.3375 56.1961 47.427 58.0517C50.5218 59.9107 50.0559 61.7892 48.9061 63.7582L42.6876 74.4101Z" fill="#FBB03B"/>
<path d="M43.3894 81.9116L27.8047 72.432L33.9299 62.1293C34.5301 61.1194 35.8196 60.787 36.8109 61.3855L48.1809 68.2468C49.4651 69.022 49.8899 70.7131 49.1281 72.026L43.3894 81.9116Z" fill="#FBB03B"/>
<path opacity="0.4" d="M41.6629 80.8612L29.5181 73.4743C28.5717 72.8988 28.2731 71.6451 28.8499 70.6749L33.9305 62.1293C34.5307 61.1194 35.8202 60.787 36.8115 61.3855L48.1815 68.2468C49.4656 69.022 49.8905 70.7131 49.1287 72.026L44.4212 80.1357C43.852 81.1158 42.6166 81.4413 41.6629 80.8612Z" fill="white"/>
<g opacity="0.3">
<path d="M42.6861 74.4107L41.8867 74.8599L41.8932 73.9302L48.1163 63.2847C49.1057 61.5925 49.2335 59.8125 47.1334 58.5507C45.1692 57.3706 43.2806 58.0897 42.2862 59.7751L36.0325 70.3774L35.2139 70.8129L35.2427 69.8984L41.5006 59.3018C42.6574 57.3428 44.336 56.1971 47.4255 58.0527C50.5203 59.9117 50.0544 61.7902 48.9046 63.7591L42.6861 74.4107Z" fill="white"/>
</g>
<path d="M38.676 66.408L37.375 65.6215L37.6651 65.1299L38.9658 65.9161L38.676 66.408Z" fill="#FBB03B"/>
<path d="M36.7956 69.5956L35.4927 68.806L35.7843 68.3125L37.0869 69.1014L36.7956 69.5956Z" fill="#FBB03B"/>
<path d="M45.3583 70.4491L44.0522 69.6599L44.3409 69.166L45.6465 69.9553L45.3583 70.4491Z" fill="#FBB03B"/>
<path d="M43.49 73.6514L42.1816 72.859L42.4718 72.3633L43.7793 73.1552L43.49 73.6514Z" fill="#FBB03B"/>
<path d="M42.7093 69.2264L39.9165 67.5376L40.5355 66.4854L43.3268 68.1723L42.7093 69.2264Z" fill="white"/>
<path d="M70.9785 42.6049C71.8466 42.1385 71.218 40.8657 71.7484 39.5627C73.508 35.2405 75.8215 37.1056 76.8777 36.6533C79.7583 35.4198 82.8662 36.9453 84.6746 38.1334C86.8998 39.5955 88.3942 42.3133 87.9034 44.9203C87.7291 45.8459 87.317 46.7259 86.7167 47.4541C86.0539 48.2583 85.1728 48.8693 84.2179 49.2926C81.4512 50.5188 79.9982 49.6051 77.1666 50.6753L70.9785 42.6049Z" fill="#232E3C"/>
<path d="M81.5641 49.8488C78.4117 49.1546 74.7699 50.2473 72.065 51.6995C71.5189 51.9926 70.8457 52.0205 70.2321 51.9308C69.6184 51.8407 69.0067 51.4274 68.8927 50.8209C68.7787 50.2145 69.6595 49.4195 70.2486 49.6126C69.3793 49.887 68.497 50.1641 67.5855 50.1996C66.674 50.2351 65.7142 50.0004 65.0564 49.3722C64.848 49.1729 64.6691 48.9275 64.6173 48.6447C64.5655 48.3619 64.6664 48.039 64.9125 47.8879C65.0399 47.8097 65.1918 47.783 65.3396 47.7578C66.6709 47.5318 68.0825 47.2212 69.4139 46.9948C67.8396 47.3845 66.2142 47.5708 64.592 47.5475C64.1203 47.5406 63.6306 47.5112 63.2161 47.2876C62.8016 47.0639 62.4858 46.5922 62.5906 46.1346C62.6719 45.7785 62.9874 45.5117 63.332 45.3862C63.6771 45.2606 64.052 45.2522 64.4193 45.245C65.7218 45.2202 67.021 44.9255 68.3235 44.9003C68.3592 44.9167 68.3953 44.9328 68.4314 44.9488C68.0503 44.9198 67.6991 44.6492 67.5759 44.2893C67.4527 43.9298 67.5648 43.5019 67.8488 43.2478C68.1585 42.9707 68.6033 42.9176 69.0178 42.8776C69.5605 42.8249 70.1027 42.7722 70.6454 42.7196C71.0864 42.6768 71.4636 42.2146 71.454 41.7742C73.8515 41.1174 76.4747 41.667 78.4381 43.1844C80.402 44.7026 81.6124 47.3765 81.5641 49.8488Z" fill="#232E3C"/>
<path d="M104.569 54.2259C105.104 53.3683 105.845 52.6394 106.714 52.118C107.315 51.757 108.168 51.5891 108.806 51.5131C109.029 51.4864 109.252 51.5459 109.436 51.6745C109.867 51.9753 110.208 52.3768 110.421 52.85C110.538 53.1103 110.414 53.4176 110.158 53.5454C109.575 53.8358 108.945 54.1877 108.393 54.437C107.549 55.5052 105.868 56.0586 104.609 55.5312C104.609 55.1224 104.57 54.6343 104.569 54.2259Z" fill="#FFB573"/>
<path d="M103.621 54.1354L105.624 52.4424C105.624 52.4424 107.3 53.4034 107.042 54.7758C106.783 56.1482 106.112 56.3948 106.112 56.3948C106.112 56.3948 104.943 56.7661 103.15 56.1074C101.357 55.4487 103.621 54.1354 103.621 54.1354Z" fill="#FBB03B"/>
<path opacity="0.2" d="M103.621 54.1354L105.624 52.4424C105.624 52.4424 107.3 53.4034 107.042 54.7758C106.783 56.1482 106.112 56.3948 106.112 56.3948C106.112 56.3948 104.943 56.7661 103.15 56.1074C101.357 55.4487 103.621 54.1354 103.621 54.1354Z" fill="#0B1727"/>
<path d="M81.6481 52.9273C84.102 53.2605 90.3995 54.2058 93.3961 54.7974C94.7774 55.0699 99.9815 53.8379 102.288 53.5849C102.915 53.5162 104.078 53.8131 104.078 53.8131L104.048 55.5966C104.048 55.5966 103.86 56.4404 103.173 56.7045C100.589 57.6972 94.0416 59.3738 92.5553 59.2662C88.2308 58.9528 80.993 58.2926 80.2953 57.3427C79.2506 55.9225 79.7599 52.672 81.6481 52.9273Z" fill="#FBB03B"/>
<path opacity="0.2" d="M83.1831 55.4043L84.8211 58.5087L87.2581 58.801C87.2581 58.801 84.3533 57.8324 83.1831 55.4043Z" fill="#0B1727"/>
<path d="M84.1193 53.2073C84.1473 53.3916 85.3125 57.5364 84.6635 60.1522C83.8587 63.397 82.5934 66.7518 80.5993 70.3687C80.5977 70.3714 80.5969 70.3744 80.5969 70.3775L80.633 71.4564C80.6626 72.3445 80.2987 73.2006 79.6379 73.7986L79.3216 74.0845C79.317 74.0887 79.3109 74.0902 79.3051 74.0887L65.601 70.6969C65.5971 70.6958 65.5941 70.6939 65.5914 70.6912L65.5307 70.6194C64.6381 69.5623 64.6231 68.0242 65.4954 66.9502C67.5667 64.3653 69.7286 59.4 70.0728 49.6934C70.0732 49.6831 70.082 49.6751 70.092 49.6758C71.8643 49.7777 73.6271 50.0079 75.366 50.3636C77.2193 50.7231 79.0445 51.2139 80.8272 51.8322C82.4863 52.473 82.5301 52.3928 84.1086 53.1962C84.1147 53.1989 84.1185 53.2012 84.1193 53.2073Z" fill="#FBB03B"/>
<path d="M77.5655 44.3955C77.4358 46.2397 76.9119 49.5356 75.3618 50.3734L78.3937 54.5204L80.8304 51.8419C79.0066 50.8489 80.1146 49.0635 80.4358 47.0698L77.5655 44.3955Z" fill="#FFB573"/>
<path opacity="0.2" d="M77.5641 44.3994C77.4613 45.8783 77.1025 48.3022 76.1445 49.6277C77.2356 49.7292 78.9922 49.3815 79.4811 48.5617C79.7302 47.9751 79.9317 47.3694 80.0837 46.7508L77.5641 44.3994Z" fill="#0B1727"/>
<path d="M84.8442 44.1221C83.5682 46.8773 83.0888 48.0696 81.0924 48.9642C78.0881 50.3099 74.9664 48.1505 75.3863 45.0755C75.7643 42.3047 77.7845 38.2687 81.0006 38.2157C83.2984 38.1706 85.1977 39.9869 85.243 42.2719C85.2553 42.9111 85.119 43.5443 84.8442 44.1221Z" fill="#FFB573"/>
<path d="M84.8209 45.9324C79.7941 45.3153 82.3732 40.7725 78.1343 38.399C81.0161 37.2204 84.1509 37.4891 85.3249 38.6092C86.4985 39.7294 84.8209 45.9324 84.8209 45.9324Z" fill="#232E3C"/>
<path d="M84.8128 47.2151C84.355 47.5861 83.7682 47.7613 83.1806 47.7029C82.4057 47.6174 82.3063 46.859 82.7642 46.2816C83.1752 45.7584 84.0763 45.1889 84.7403 45.5462C85.2169 45.8271 85.3743 46.4389 85.0922 46.9129C85.0208 47.0316 84.9257 47.1346 84.8128 47.2151Z" fill="#FFB573"/>
<path d="M80.2372 43.2512C80.1478 43.4794 79.9525 43.6145 79.8032 43.5611C79.6539 43.5077 79.6013 43.2695 79.6907 43.0413C79.7802 42.813 79.9755 42.6779 80.1248 42.7314C80.2741 42.7848 80.3267 43.023 80.2372 43.2512Z" fill="#232E3C"/>
<path d="M77.6262 42.2451C77.5333 42.4733 77.3414 42.6084 77.1883 42.555C77.0352 42.5015 76.9864 42.2634 77.0793 42.0317C77.1722 41.7997 77.3606 41.6684 77.5134 41.7218C77.6669 41.7753 77.7264 42.013 77.6262 42.2451Z" fill="#232E3C"/>
<path d="M77.5752 41.7617L77.0815 41.4033C77.0815 41.4033 77.1976 41.9159 77.5752 41.7617Z" fill="#232E3C"/>
<path d="M78.1616 42.9072C77.7509 43.3507 77.2815 43.7369 76.7661 44.0549C76.9384 44.3155 77.2174 44.4869 77.5287 44.5235L78.1616 42.9072Z" fill="#EC837E"/>
<path d="M78.7968 45.4852C78.9427 45.5276 79.0835 45.5848 79.2175 45.6558C79.2482 45.6707 79.2608 45.7077 79.2459 45.7379L79.2455 45.7386C79.2278 45.7661 79.1925 45.7768 79.1626 45.7627C78.6115 45.4604 77.9475 45.439 77.378 45.7062C77.3523 45.7253 77.3162 45.7215 77.2947 45.6978C77.2736 45.6764 77.2744 45.6421 77.2959 45.6211C77.2982 45.6188 77.3005 45.6169 77.3031 45.615C77.7652 45.3799 78.301 45.3333 78.7968 45.4852Z" fill="#232E3C"/>
<path d="M81.0695 41.9072C81.0626 41.8743 81.0361 41.8472 80.9992 41.8354C80.6661 41.7369 80.4101 41.5076 80.3127 41.2206C80.2981 41.1698 80.2386 41.1381 80.1783 41.1484C80.1185 41.1591 80.0801 41.2091 80.0927 41.2599C80.0927 41.2606 80.0931 41.2618 80.0931 41.2618C80.2064 41.6106 80.5141 41.8907 80.9171 42.0113C80.9747 42.0293 81.0388 42.006 81.0622 41.9583C81.0695 41.9423 81.0722 41.9247 81.0695 41.9072Z" fill="#232E3C"/>
<path d="M77.1089 40.0938C77.0663 40.0938 77.0271 40.1171 77.0068 40.1545C76.9742 40.2117 76.9945 40.2846 77.0521 40.317L77.0528 40.3174C77.4493 40.5498 77.9351 40.5746 78.3535 40.3834C78.4118 40.3563 78.4371 40.2876 78.4099 40.2296C78.4087 40.2266 78.4072 40.2239 78.4053 40.2209C78.3738 40.1628 78.3013 40.1411 78.2429 40.1724L78.2422 40.1728C77.8952 40.3239 77.4965 40.2999 77.1703 40.1083C77.1518 40.0983 77.1304 40.0934 77.1089 40.0938Z" fill="#232E3C"/>
<path d="M80.1842 42.7676L79.6909 42.4092C79.6909 42.4092 79.8069 42.9362 80.1842 42.7676Z" fill="#232E3C"/>
<path d="M79.643 74.821C79.5379 73.9092 78.8954 71.9533 77.7928 71.2804C76.3279 70.3862 76.0174 70.195 69.5802 68.7302C66.5445 68.0394 65.4469 70.1939 65.1433 71.4132C65.1026 71.577 65.108 71.746 65.1579 71.9075L65.2247 72.1243C65.4833 72.3288 79.2865 75.158 79.3928 75.2813C79.3928 75.2813 79.678 75.121 79.643 74.821Z" fill="#FBB03B"/>
<path d="M50.0395 57.031L47.4958 59.7744L45.9487 56.9746C45.9487 56.9746 47.8884 55.9162 48.9841 55.6514L50.0395 57.031Z" fill="#FFB573"/>
<path d="M45.089 60.0297L44.6933 59.092C44.5931 58.855 44.6327 58.5825 44.7958 58.3829L45.9479 56.9746L47.4949 59.7744L46.0085 60.4015C45.6512 60.5522 45.239 60.3854 45.089 60.0297Z" fill="#FFB573"/>
<path d="M48.7959 58.495L46.1777 56.7921L49.3167 54.959L50.7782 56.6367L48.7959 58.495Z" fill="#FBB03B"/>
<path opacity="0.2" d="M48.7959 58.495L46.1777 56.7921L49.3167 54.959L50.7782 56.6367L48.7959 58.495Z" fill="#0B1727"/>
<path opacity="0.2" d="M69.625 54.218C69.9048 54.3222 69.2148 57.9037 69.0332 58.6822C68.8517 59.4608 70.9234 56.3122 70.8869 55.4034C70.8282 53.9303 69.625 54.218 69.625 54.218Z" fill="#0B1727"/>
<path d="M49.3209 54.6707C49.3209 54.6707 53.4231 47.7689 69.8748 49.5241C75.2451 50.097 72.493 54.7894 68.8808 54.083C66.2005 53.5586 60.2031 52.9529 56.4907 54.2349C52.7784 55.5165 52.9868 57.3419 50.7766 56.6374C48.5667 55.9332 49.3209 54.6707 49.3209 54.6707Z" fill="#FBB03B"/>
<path d="M65.6099 77.4512C65.6099 77.4512 56.8934 98.7742 54.2142 104.779C54.0569 105.132 53.8738 105.471 53.6681 105.798C48.4621 114.08 36.1104 131.247 36.1104 131.247L38.253 133.145C38.253 133.145 53.9805 118.214 59.6252 107.996C64.7188 100.21 74.346 80.2262 74.346 80.2262L65.6099 77.4512Z" fill="#FFB573"/>
<path d="M39.6515 132.736C39.7494 133.74 39.1499 135.627 41.2849 136.747C42.0164 137.131 41.7481 138.113 40.4878 137.841C39.2278 137.569 37.1922 135.004 36.508 134.38C35.3954 133.362 35.1221 133.004 34.2248 132.209C34.2006 132.188 34.1792 132.164 34.16 132.138C34.0134 131.936 34.0594 131.654 34.2624 131.508L36.5406 129.923C36.648 129.846 36.7966 129.855 36.8925 129.947L39.4201 132.263C39.554 132.386 39.6362 132.555 39.6515 132.736Z" fill="#FBB03B"/>
<path d="M40.6769 133.499C40.6938 133.482 40.7099 133.464 40.7241 133.446C40.7824 133.376 40.797 133.28 40.7613 133.197C40.6293 132.845 39.5666 132.63 39.3521 132.592C39.3064 132.582 39.2619 132.612 39.2531 132.658C39.2488 132.679 39.2531 132.701 39.2653 132.72C39.4891 133.054 39.9239 133.613 40.33 133.631C40.4597 133.641 40.5867 133.592 40.6769 133.499ZM39.5443 132.804C40.0049 132.908 40.5671 133.093 40.6097 133.259C40.607 133.276 40.6216 133.3 40.5974 133.342C40.5406 133.418 40.4508 133.462 40.3557 133.461C40.1377 133.468 39.846 133.209 39.5443 132.804Z" fill="#FBB03B"/>
<path d="M40.7313 132.525C40.7482 132.507 40.7643 132.488 40.7789 132.468C40.8399 132.367 40.8207 132.237 40.7332 132.158C40.6591 132.07 40.5501 132.018 40.435 132.015C39.9698 131.988 39.3147 132.587 39.2786 132.613C39.2445 132.645 39.2422 132.698 39.2737 132.732C39.2852 132.745 39.3005 132.753 39.3174 132.757C39.6528 132.842 40.4665 132.775 40.7313 132.525ZM39.5446 132.617C39.7887 132.391 40.0942 132.24 40.4235 132.186C40.4926 132.186 40.5578 132.216 40.6031 132.269C40.6607 132.334 40.6388 132.363 40.6326 132.379C40.534 132.538 39.9318 132.643 39.5446 132.617Z" fill="#FBB03B"/>
<path opacity="0.1" d="M68.0614 92.8219L65.3047 98.0914C65.3047 98.0914 63.413 98.4215 61.4849 96.677C59.5568 94.9324 58.5405 94.5932 58.5405 94.5932L61.8457 86.6162L68.0614 92.8219Z" fill="#0B1727"/>
<path d="M49.2684 112.749C54.5884 115.861 61.0836 119.299 67.2502 119.045C73.4168 118.791 81.2906 117.254 87.996 119.059C87.996 119.059 93.2769 108.258 92.5788 101.738C91.5334 91.9791 85.3617 81.942 78.8604 74.5582C78.563 74.2204 76.4764 73.5449 72.3818 72.8945C64.411 85.6647 56.4356 99.4179 49.1279 112.575C49.1951 112.303 49.2626 112.031 49.3298 111.759" fill="#232E3C"/>
<path opacity="0.2" d="M87.9959 119.058C87.9959 119.058 92.7824 110.689 90.9395 102.739C89.0966 94.7898 84.6738 90.2188 84.6738 90.2188L71.9648 118.702C71.9648 118.702 81.2263 117.793 83.8587 118.341C86.4907 118.889 87.9959 119.058 87.9959 119.058Z" fill="#0B1727"/>
<path d="M70.2788 86.6087C70.2788 86.6087 78.3433 93.507 83.9392 100.887C84.7885 102.007 84.9885 103.485 84.4661 104.788C81.4078 112.42 77.4276 121.797 77.8305 121.615L79.4075 123.936C79.4075 123.936 93.1308 105.298 90.637 101.554C87.4911 92.93 78.6453 81.543 78.6453 81.543L70.2788 86.6087Z" fill="#FFB573"/>
<path opacity="0.1" d="M82.9328 87.4297L86.2191 92.6843C86.2191 92.6843 84.5109 96.6348 81.811 96.6359C80.4328 96.6363 78.9545 95.0097 78.9545 95.0097L75.1396 91.1042L82.9328 87.4297Z" fill="#0B1727"/>
<path d="M80.2451 123.69C80.2114 124.696 81.114 126.855 82.2377 128.98C82.4899 129.452 81.4091 130.135 80.5817 129.162C79.7539 128.188 77.7202 125.635 77.1207 124.935C76.1459 123.779 75.7142 123.38 74.9251 122.483C74.9006 122.456 74.8798 122.426 74.8626 122.393C74.7463 122.173 74.8315 121.9 75.0533 121.784L77.5168 120.499C77.6281 120.44 77.7659 120.467 77.8472 120.563L80.0636 123.179C80.1856 123.321 80.2505 123.503 80.2451 123.69Z" fill="#FBB03B"/>
<path d="M81.1496 124.565C81.1699 124.55 81.1887 124.534 81.206 124.516C81.275 124.458 81.3054 124.366 81.2839 124.279C81.2002 123.912 80.1709 123.577 79.9637 123.5C79.931 123.49 79.8957 123.5 79.8723 123.524C79.8547 123.553 79.8543 123.589 79.8719 123.618C80.0504 123.968 80.415 124.584 80.8153 124.652C80.9343 124.671 81.0555 124.639 81.1496 124.565ZM80.1179 123.731C80.5604 123.896 81.0766 124.145 81.1185 124.316C81.1185 124.316 81.1185 124.358 81.0866 124.393C81.0225 124.463 80.9277 124.497 80.8333 124.484C80.6261 124.449 80.3701 124.172 80.1179 123.731Z" fill="#FBB03B"/>
<path d="M81.3313 123.587C81.3504 123.572 81.3681 123.556 81.3842 123.538C81.4598 123.447 81.4602 123.315 81.385 123.223C81.322 123.127 81.2215 123.061 81.1075 123.041C80.6508 122.96 79.922 123.472 79.8902 123.493C79.8652 123.512 79.8522 123.542 79.8548 123.573C79.8591 123.605 79.8809 123.632 79.9109 123.644C80.2233 123.766 81.0457 123.803 81.3313 123.587ZM80.1431 123.532C80.4132 123.335 80.7372 123.223 81.0718 123.212C81.139 123.223 81.1988 123.261 81.2368 123.317C81.2825 123.387 81.2614 123.415 81.2365 123.429C81.1344 123.576 80.5226 123.606 80.1431 123.532Z" fill="#FBB03B"/>
<path d="M65.3807 71.46C60.4671 77.2176 58.3191 84.7457 56.1998 91.9971C54.081 99.2485 51.7007 106.754 46.4771 112.235C48.2478 115.499 51.0445 118.038 54.4855 119.469C62.5871 122.838 74.3432 120.467 74.3432 120.467C79.6878 120.301 89.1672 105.461 89.4581 100.184C90.2081 86.5742 77.5985 74.4399 77.5589 73.9922C73.6006 73.0774 69.3824 72.1664 65.3807 71.46Z" fill="#232E3C"/>
<path d="M80.9395 54.1574C80.4014 54.9643 79.2769 55.2535 78.3378 54.9864C77.3987 54.7234 76.6534 53.991 76.1552 53.1579C75.6924 52.3686 75.3439 51.4958 75.0837 50.6187C75.0618 50.5619 75.0484 50.5092 75.0308 50.452C75.1543 50.452 75.2687 50.3951 75.3528 50.3027C75.5466 50.5306 75.7979 50.6798 76.1069 50.7764C77.5534 51.2107 79.1012 51.6797 80.6002 51.5702C80.7415 51.7061 80.8957 51.8244 81.0589 51.9297C81.0807 51.9473 81.103 51.9648 81.1249 51.9778C81.1997 52.6927 81.3363 53.5567 80.9395 54.1574Z" fill="#FBB03B"/>
<path opacity="0.2" d="M81.2419 51.4875C81.0304 51.5314 80.8186 51.5577 80.6025 51.5707C80.7437 51.7066 80.898 51.8249 81.0611 51.9302C80.8539 51.9741 80.6635 52.0806 80.4551 52.1214C79.3184 52.3435 77.201 52.1565 75.9104 51.3761C75.1566 50.9204 74.9317 50.3296 74.9141 50.2727C74.9141 50.2727 75.2714 50.3956 75.355 50.3036C75.2798 50.2158 75.2138 50.1151 75.1566 50.001C75.2226 49.8388 75.289 49.672 75.355 49.5098C76.303 49.8739 77.2202 50.2815 78.2211 50.4834C79.2178 50.6807 80.2671 50.7158 81.2415 50.4307C81.2684 50.6234 81.2461 51.1146 81.2419 51.4875Z" fill="#0B1727"/>
<path d="M81.4139 51.1089C81.4135 51.3089 81.2646 51.4768 81.0654 51.505C80.8942 51.5291 80.705 51.5554 80.5987 51.5691C79.1024 51.7653 76.7425 51.1455 75.9588 50.768C75.6675 50.6276 75.5451 50.5299 75.3512 50.3017C75.276 50.2139 75.21 50.1131 75.1528 49.999C75.1528 49.7841 75.2369 49.4716 75.3459 49.267C75.415 49.138 75.5696 49.0808 75.7066 49.1342C76.5916 49.4792 77.4559 49.8494 78.3935 50.0383C79.2321 50.2043 80.1082 50.2555 80.9457 50.0979C81.1974 50.0505 81.4277 50.2471 81.4235 50.5017C81.4204 50.7035 81.4143 50.9238 81.4139 51.1089Z" fill="#FBB03B"/>
<path d="M69.2052 42.9222C70.0841 43.5672 68.1152 45.4526 68.357 46.2846C68.5259 46.857 69.1246 46.3647 69.1246 46.3647C69.1246 46.3647 68.9557 48.1432 67.624 47.2654C65.6552 45.964 67.9579 41.9948 69.2052 42.9222Z" fill="#232E3C"/>
<path d="M55.2316 40.2244C54.2786 40.2244 53.3295 40.2229 52.3843 40.2194L52.3854 39.9332C57.1447 39.9504 62.0169 39.9244 66.8629 39.8584L66.8671 40.1446C62.9813 40.1977 59.0794 40.2244 55.2316 40.2244Z" fill="#FBB03B"/>
<path d="M50.0421 40.208C47.9965 40.195 45.906 40.1736 43.8286 40.1446L43.8328 39.8584C45.9095 39.8874 47.9992 39.9088 50.044 39.9217L50.0421 40.208Z" fill="#FBB03B"/>
<path d="M41.7418 39.8584H39.4146V40.1446H41.7418V39.8584Z" fill="#FBB03B"/>
<path d="M55.1609 86.4727H40.561V86.7589H55.1609V86.4727Z" fill="#FBB03B"/>
<path d="M38.9859 86.4727H37.7974V86.7589H38.9859V86.4727Z" fill="#FBB03B"/>
<path d="M65.6598 61.7393H59.0249V62.0255H65.6598V61.7393Z" fill="#FBB03B"/>
<path d="M57.3325 61.7393H53.5933V62.0255H57.3325V61.7393Z" fill="#FBB03B"/>
</svg>
